<?xml version="1.0" encoding="UTF-8"?>
<!DOCTYPE svg PUBLIC "-//W3C//DTD SVG 1.1//EN" "http://www.w3.org/Graphics/SVG/1.1/DTD/svg11.dtd">
<svg xmlns="http://www.w3.org/2000/svg" version="1.1" viewBox="0 0 73 73" stroke="none">
	<rect width="100%" height="100%" fill="#ffffff"/>
	<path d="M20,20h7v1h-7z M28,20h1v1h-1z M30,20h1v1h-1z M33,20h1v1h-1z M37,20h1v1h-1z M40,20h1v1h-1z M42,20h1v2h-1z M44,20h1v8h-1z M46,20h7v1h-7z M20,21h1v6h-1z M26,21h1v6h-1z M29,21h1v2h-1z M31,21h1v1h-1z M46,21h1v6h-1z M52,21h1v6h-1z M22,22h3v3h-3z M28,22h1v1h-1z M33,22h1v1h-1z M36,22h2v1h-2z M40,22h2v1h-2z M43,22h1v1h-1z M48,22h3v3h-3z M30,23h1v2h-1z M38,23h1v2h-1z M42,23h1v4h-1z M31,24h1v2h-1z M33,24h1v1h-1z M35,24h1v2h-1z M39,24h1v1h-1z M28,25h2v1h-2z M34,25h1v3h-1z M37,25h1v1h-1z M40,25h1v3h-1z M41,25h1v1h-1z M21,26h5v1h-5z M28,26h1v1h-1z M30,26h1v3h-1z M32,26h1v1h-1z M36,26h1v2h-1z M38,26h1v1h-1z M47,26h5v1h-5z M31,27h1v1h-1z M35,27h1v1h-1z M39,27h1v6h-1z M20,28h1v4h-1z M22,28h1v2h-1z M26,28h2v1h-2z M29,28h1v2h-1z M32,28h1v1h-1z M38,28h1v2h-1z M42,28h2v3h-2z M47,28h1v1h-1z M50,28h1v1h-1z M52,28h1v3h-1z M21,29h1v1h-1z M23,29h3v1h-3z M27,29h1v1h-1z M33,29h1v1h-1z M35,29h3v1h-3z M45,29h2v1h-2z M49,29h1v3h-1z M51,29h1v1h-1z M24,30h3v1h-3z M31,30h1v1h-1z M35,30h1v2h-1z M37,30h1v1h-1z M40,30h1v1h-1z M44,30h1v1h-1z M50,30h1v1h-1z M22,31h3v1h-3z M28,31h2v1h-2z M32,31h2v2h-2z M36,31h1v1h-1z M38,31h1v1h-1z M47,31h1v3h-1z M48,31h1v1h-1z M51,31h1v1h-1z M21,32h1v2h-1z M25,32h2v1h-2z M29,32h1v5h-1z M37,32h1v1h-1z M40,32h2v1h-2z M43,32h4v2h-4z M52,32h1v3h-1z M22,33h2v1h-2z M25,33h1v1h-1z M28,33h1v3h-1z M30,33h1v2h-1z M40,33h1v1h-1z M51,33h1v1h-1z M26,34h2v1h-2z M31,34h2v2h-2z M35,34h1v1h-1z M37,34h1v1h-1z M39,34h1v2h-1z M42,34h2v1h-2z M45,34h1v4h-1z M46,34h1v1h-1z M48,34h2v1h-2z M21,35h1v1h-1z M24,35h2v1h-2z M33,35h2v1h-2z M38,35h1v3h-1z M40,35h1v1h-1z M44,35h1v1h-1z M47,35h2v1h-2z M20,36h1v1h-1z M23,36h1v1h-1z M26,36h1v1h-1z M32,36h1v3h-1z M33,36h1v1h-1z M35,36h1v3h-1z M36,36h1v1h-1z M42,36h1v2h-1z M46,36h2v1h-2z M49,36h1v4h-1z M51,36h1v1h-1z M27,37h1v2h-1z M34,37h1v1h-1z M39,37h1v4h-1z M41,37h1v2h-1z M43,37h1v6h-1z M46,37h1v1h-1z M52,37h1v3h-1z M23,38h1v2h-1z M26,38h1v1h-1z M29,38h1v1h-1z M31,38h1v1h-1z M33,38h1v3h-1z M36,38h1v6h-1z M37,38h1v1h-1z M40,38h1v1h-1z M44,38h1v1h-1z M50,38h1v1h-1z M20,39h2v2h-2z M22,39h1v1h-1z M28,39h1v1h-1z M30,39h1v1h-1z M38,39h1v2h-1z M45,39h4v1h-4z M24,40h3v1h-3z M31,40h1v1h-1z M34,40h2v1h-2z M37,40h1v1h-1z M41,40h1v1h-1z M44,40h1v2h-1z M46,40h2v3h-2z M22,41h2v2h-2z M25,41h1v1h-1z M27,41h4v1h-4z M32,41h1v2h-1z M40,41h1v1h-1z M49,41h1v4h-1z M50,41h1v1h-1z M52,41h1v7h-1z M20,42h2v1h-2z M24,42h1v1h-1z M26,42h2v1h-2z M34,42h1v2h-1z M37,42h3v1h-3z M42,42h1v6h-1z M45,42h1v1h-1z M48,42h1v1h-1z M23,43h1v2h-1z M27,43h3v1h-3z M31,43h1v1h-1z M35,43h1v1h-1z M38,43h1v3h-1z M39,43h1v1h-1z M47,43h1v2h-1z M51,43h1v1h-1z M20,44h2v1h-2z M25,44h3v1h-3z M29,44h2v2h-2z M33,44h1v1h-1z M43,44h4v1h-4z M48,44h1v8h-1z M28,45h1v2h-1z M31,45h2v1h-2z M34,45h2v1h-2z M37,45h1v1h-1z M39,45h1v3h-1z M43,45h2v1h-2z M20,46h7v1h-7z M29,46h1v1h-1z M31,46h1v1h-1z M33,46h1v1h-1z M35,46h2v2h-2z M40,46h1v7h-1z M41,46h1v1h-1z M44,46h1v4h-1z M46,46h1v1h-1z M49,46h2v1h-2z M20,47h1v6h-1z M26,47h1v6h-1z M30,47h1v2h-1z M32,47h1v3h-1z M34,47h1v1h-1z M37,47h1v2h-1z M22,48h3v3h-3z M35,48h1v1h-1z M41,48h1v1h-1z M43,48h1v1h-1z M45,48h3v1h-3z M29,49h1v4h-1z M33,49h1v1h-1z M50,49h3v2h-3z M28,50h1v1h-1z M30,50h2v1h-2z M35,50h1v1h-1z M38,50h2v1h-2z M41,50h1v1h-1z M45,50h1v2h-1z M47,50h1v1h-1z M49,50h1v2h-1z M31,51h1v1h-1z M33,51h1v1h-1z M39,51h1v1h-1z M44,51h1v2h-1z M21,52h5v1h-5z M28,52h1v1h-1z M30,52h1v1h-1z M32,52h1v1h-1z M34,52h2v1h-2z M38,52h1v1h-1z M42,52h1v1h-1z M47,52h1v1h-1z M52,52h1v1h-1z" fill="#000000"/>
</svg>
